<?xml version="1.0" encoding="UTF-8" standalone="no"?>
<!-- Created with Inkscape (http://www.inkscape.org/) -->

<svg
   width="87.038742mm"
   height="15.000001mm"
   viewBox="0 0 87.038742 15.000001"
   version="1.1"
   id="svg5"
   xml:space="preserve"
   xmlns="http://www.w3.org/2000/svg"
   xmlns:svg="http://www.w3.org/2000/svg"><defs
     id="defs2"><style
       id="style1775">.cls-1{fill:#38a3a5;}.cls-2{fill:#63c196;}.cls-3{fill:#cbe6c6;}.cls-4{fill:#91cd91;}.cls-5{fill:#a7a9ac;}</style><style
       id="style1820">
      .cls-1 {
        fill: #c9d1d9;
      }
    </style></defs><g
     id="layer1"
     transform="translate(-14.785386,-141.0723)"><g
       id="Layer_1-2"
       data-name="Layer 1"
       transform="matrix(0.13916725,0,0,0.13916725,70.485542,172.10294)"><rect
         class="cls-1"
         width="17.05933"
         height="107.78398"
         rx="8.5296602"
         id="rect1779"
         x="-3.2790253"
         y="-222.97372" /><path
         class="cls-2"
         d="m 0.98724459,-116.72188 v 0 a 8.52966,8.52966 0 0 1 -3.12208999,-11.65174 l 43.5245604,-74.24451 a 8.52965,8.52965 0 0 1 11.65173,-3.12207 v 0 a 8.52966,8.52966 0 0 1 3.12207,11.65173 l -43.52454,74.24451 a 8.52966,8.52966 0 0 1 -11.65173041,3.12208 z"
         id="path1781" /><path
         class="cls-3"
         d="m 72.175545,-132.7772 v 0 a 8.52965,8.52965 0 0 1 -11.78065,2.59352 l -27.51875,-20.771 a 8.52965,8.52965 0 0 1 -2.59352,-11.78065 v 0 a 8.52966,8.52966 0 0 1 11.78065,-2.59348 l 27.51875,20.771 a 8.52965,8.52965 0 0 1 2.59352,11.78061 z"
         id="path1783" /><path
         class="cls-4"
         d="m 34.198855,-150.5171 v 0 a 8.52965,8.52965 0 0 1 -5.28793,-10.842 l 11.79985,-39.77032 a 8.52966,8.52966 0 0 1 10.84195,-5.28793 v 0 a 8.52966,8.52966 0 0 1 5.28793,10.842 l -11.79985,39.77032 a 8.52964,8.52964 0 0 1 -10.84195,5.28793 z"
         id="path1785" /><path
         class="cls-1"
         d="m 109.75174,-182.12511 a 19.31629,19.31629 0 0 1 10.81445,3.21826 q 4.90722,3.21974 6.70117,10.07666 l -1.37305,0.94971 0.5293,-2.00488 a 15.06364,15.06364 0 0 1 4.80078,-6.2251 28.637,28.637 0 0 1 7.70117,-4.37891 23.12369,23.12369 0 0 1 8.28321,-1.63574 18.4663,18.4663 0 0 1 10.44726,2.74365 16.30268,16.30268 0 0 1 6.06641,7.333 26.34124,26.34124 0 0 1 1.95117,10.39356 v 30.7046 a 2.11508,2.11508 0 0 1 -0.58008,1.477 2.16312,2.16312 0 0 1 -3.05859,0 2.10835,2.10835 0 0 1 -0.582,-1.477 v -30.28272 a 22.82944,22.82944 0 0 0 -1.5293,-8.49414 13.31527,13.31527 0 0 0 -4.74805,-6.11963 14.261,14.261 0 0 0 -8.38867,-2.26855 18.877,18.877 0 0 0 -8.86328,2.26855 20.34051,20.34051 0 0 0 -7.12305,6.11963 14.14174,14.14174 0 0 0 -2.79492,8.49414 v 30.28272 a 2.12376,2.12376 0 0 1 -0.58008,1.477 2.16548,2.16548 0 0 1 -3.06054,0 2.11508,2.11508 0 0 1 -0.58008,-1.477 v -30.81055 a 22.72454,22.72454 0 0 0 -1.42383,-8.23 12.81977,12.81977 0 0 0 -4.48437,-5.90869 13.55644,13.55644 0 0 0 -8.125,-2.21582 18.095,18.095 0 0 0 -8.59961,2.21582 20.42557,20.42557 0 0 0 -6.911185,5.90871 13.47006,13.47006 0 0 0 -2.74316,8.23 v 30.81053 a 2.16539,2.16539 0 0 1 -2.11035,2.11035 1.974,1.974 0 0 1 -1.53027,-0.6333 2.11074,2.11074 0 0 1 -0.58008,-1.477 v -48.43121 a 2.16266,2.16266 0 0 1 2.11035,-2.11035 1.97606,1.97606 0 0 1 1.5293,0.63281 2.125,2.125 0 0 1 0.58105,1.47754 v 11.501 l -3.166,5.38135 a 15.47294,15.47294 0 0 1 1.794,-7.1753 22.7818,22.7818 0 0 1 4.80078,-6.27783 24.3575,24.3575 0 0 1 6.858395,-4.48437 19.66391,19.66391 0 0 1 7.96675,-1.6885 z"
         id="path1787" /><path
         class="cls-1"
         d="m 185.82697,-128.83995 a 1.97542,1.97542 0 0 1 -1.53027,-0.6333 2.11508,2.11508 0 0 1 -0.58008,-1.477 v -73.86041 a 2.11963,2.11963 0 0 1 0.58008,-1.47754 2.16668,2.16668 0 0 1 3.06055,0 2.124,2.124 0 0 1 0.58007,1.47754 v 73.86036 a 2.11942,2.11942 0 0 1 -0.58007,1.477 1.9783,1.9783 0 0 1 -1.53028,0.63335 z m 36.61426,-53.28516 a 2.0239,2.0239 0 0 1 1.47656,0.6333 2.14835,2.14835 0 0 1 0.63379,1.58252 2.00432,2.00432 0 0 1 -0.73926,1.583 l -36.61335,30.49366 -0.21094,-5.06494 34.08106,-28.59424 a 1.91379,1.91379 0 0 1 1.3721,-0.6333 z m 0.63281,53.28516 a 2.211,2.211 0 0 1 -1.583,-0.73877 l -25.53423,-27.22266 3.165,-2.74365 25.42969,27.01221 a 2.14752,2.14752 0 0 1 0.63281,1.58252 1.74414,1.74414 0 0 1 -0.84472,1.583 2.80249,2.80249 0 0 1 -1.26562,0.52735 z"
         id="path1789" /></g><g
       id="g1840"
       transform="matrix(0.04789578,0,0,0.04789578,14.785386,90.242602)"><path
         class="cls-1"
         d="m 471.87,1061.5063 c -86.21,0 -156.34,70.13 -156.34,156.34 0,86.21 70.13,156.34 156.34,156.34 86.21,0 156.34,-70.13 156.34,-156.34 0,-86.21 -70.14,-156.34 -156.34,-156.34 z m 0,304.17 c -81.51,0 -147.83,-66.31 -147.83,-147.83 0,-81.52 66.32,-147.82 147.83,-147.82 81.51,0 147.83,66.31 147.83,147.83 0,81.52 -66.31,147.83 -147.83,147.83 z"
         id="path1824"
         style="fill:#c9d1d9;fill-opacity:1" /><polygon
         class="cls-1"
         points="330.66,304.35 217.56,304.35 217.56,0 209.04,0 209.04,312.86 330.66,312.86 "
         id="polygon1826"
         style="fill:#c9d1d9;fill-opacity:1"
         transform="translate(0,1061.4163)" /><polygon
         class="cls-1"
         points="8.52,289.84 8.52,0 0,0 0,313.18 6.38,313.18 80.16,166.47 153.93,313.18 163.46,313.18 84.91,156.97 163.48,0 153.94,0 "
         id="polygon1828"
         transform="translate(0,1061.2563)" /><path
         class="cls-1"
         d="m 826.76,1227.5763 v -166.23 h -160.6 v 313 h 8.52 v -146.77 h 71.97 l 73.82,146.77 H 830 l -73.82,-146.77 z m -152.08,-8.52 v -149.19 h 143.57 v 149.2 H 674.68 Z"
         id="path1830"
         style="fill:#c9d1d9;fill-opacity:1" /></g><g
       id="layer2"><text
         xml:space="preserve"
         style="font-size:12.3967px;font-family:'Noto Sans Palmyrene';-inkscape-font-specification:'Noto Sans Palmyrene';fill:#c9d1d9;fill-opacity:1;stroke-width:1.03302"
         x="58.750988"
         y="152.94824"
         id="text2831"><tspan
           id="tspan2829"
           style="stroke-width:1.03302"
           x="58.750988"
           y="152.94824">+</tspan></text></g></g></svg>
